<?xml version="1.0" encoding="UTF-8"?>
<svg id="Layer_2" xmlns="http://www.w3.org/2000/svg" version="1.1" viewBox="0 0 153 153">
  <!-- Generator: Adobe Illustrator 29.4.0, SVG Export Plug-In . SVG Version: 2.1.0 Build 152)  -->
  <defs>
    <style>
      .st0 {
        fill: #fff;
      }
    </style>
  </defs>
  <path class="st0" d="M122.7,89.4s0,0,0,0l-22.4-7.3c0,.3-.2.6-.2.9,0-.3.2-.6.2-.9,0,0,0,0,0,0l-17.4-5.6,17.4-5.6c-.1-.4-.2-.8-.4-1.3.1.4.3.8.4,1.3,0,0,0,0,0,0l22.4-7.3s0,0,0,0l23.3-7.6-1.2-3.8-23.3,7.6s0,0,0,0,0,0,0,0l-22.4,7.3s0,0,0,0c.1.2.2.5.3.8,0-.3-.2-.5-.3-.8,0,0,0,0,0,0l-17.4,5.6,10.7-14.8s0,0,0,0l13.8-19s0,0,0,0l14.4-19.9-3.2-2.4-14.4,19.9s0,0,0,0c0,0,0,0,0,0l-13.8,19s0,0,0,0c0,0,0,0,0,0l-10.7,14.8v-18.3h0s0,0,0,0c0,0,0,0,0,0V4h-4v66.3l-10.7-14.8s0,0,0,0c0,0,0,0,0,0l-13.8-19s0,0,0,0l-14.4-19.9-3.2,2.4,14.4,19.9s0,0,0,0l13.8,19s0,0,0,0c0,0,.2-.2.3-.2,0,0-.2.2-.3.2,0,0,0,0,0,0l10.7,14.8-17.4-5.6s0,0,0,0l-22.4-7.3h0s-23.3-7.6-23.3-7.6l-1.2,3.8,23.3,7.6s0,0,0,0l22.4,7.3s0,0,0,0c0,0,0,0,0,0l17.4,5.6-17.4,5.6h0c0,.3.2.5.2.8,0-.3-.2-.5-.2-.8,0,0,0,0,0,0l-22.4,7.3s0,0,0,0l-23.3,7.6,1.2,3.8,23.3-7.6s0,0,0,0,0,0,0,0l22.4-7.3s0,0,0,0l17.4-5.6-10.7,14.8h0s0,0,0,0l-13.8,19s0,0,0,0l-14.4,19.9,3.2,2.4,14.4-19.9s0,0,0,0,0,0,0,0l13.8-19s0,0,0,0c0,0,0,0,0,0l10.7-14.8v18.3h0s0,0,0,0c0,0,0,0,0,0v23.5s0,0,0,0v24.6h4v-24.5h0v-23.5h0s0,0,0,0c0,0,0,0,0,0v-18.3l10.7,14.8h0s13.8,19,13.8,19h0s0,0,0,0l14.4,19.9,3.2-2.4-14.4-19.9s0,0,0,0l-13.8-19h0c-.2.2-.5.4-.7.6.2-.2.5-.4.7-.6l-10.7-14.8,17.4,5.6s0,0,0,0l22.4,7.3s0,0,0,0l23.3,7.6,1.2-3.8-23.3-7.6s0,0,0,0Z"/>
</svg>