<?xml version="1.0" encoding="UTF-8"?>
<svg id="Layer_2" xmlns="http://www.w3.org/2000/svg" version="1.1" viewBox="0 0 153 153">
  <!-- Generator: Adobe Illustrator 29.4.0, SVG Export Plug-In . SVG Version: 2.1.0 Build 152)  -->
  <defs>
    <style>
      .st0 {
        fill: #fff;
      }
    </style>
  </defs>
  <path class="st0" d="M99.1,67.1l-17.4,5.6,10.7-14.8c-1-.9-2.1-1.7-3.2-2.4l-10.7,14.8v-18.3c-.7,0-1.3,0-2,0s-1.3,0-2,0v18.3l-10.7-14.8c-1.1.7-2.2,1.5-3.2,2.4l10.7,14.8-17.4-5.6c-.5,1.2-.9,2.5-1.2,3.8l17.4,5.6-17.4,5.6c.3,1.3.7,2.6,1.2,3.8l17.4-5.6-10.7,14.8c1,.9,2.1,1.7,3.2,2.4l10.7-14.8v18.3c.7,0,1.3,0,2,0s1.3,0,2,0v-18.3l10.7,14.8c1.1-.7,2.2-1.5,3.2-2.4l-10.7-14.8,17.4,5.6c.5-1.2.9-2.5,1.2-3.8l-17.4-5.6,17.4-5.6c-.3-1.3-.7-2.6-1.2-3.8Z"/>
</svg>