<?xml version="1.0" encoding="UTF-8"?>
<svg id="Layer_1" xmlns="http://www.w3.org/2000/svg" version="1.1" viewBox="0 0 153 154">
  <!-- Generator: Adobe Illustrator 29.4.0, SVG Export Plug-In . SVG Version: 2.1.0 Build 152)  -->
  <defs>
    <style>
      .st0 {
        fill: #fff;
      }
    </style>
  </defs>
  <path class="st0" d="M50.8,70.7c.3-1.3.7-2.6,1.2-3.8l-22.4-7.3c-.5,1.2-.9,2.5-1.2,3.8l22.4,7.3Z"/>
  <path class="st0" d="M52,87.1c-.5-1.2-.9-2.5-1.2-3.8l-22.4,7.3c.4,1.3.8,2.6,1.2,3.8l22.4-7.3Z"/>
  <path class="st0" d="M62.6,99.5c-1.1-.7-2.2-1.5-3.2-2.4l-13.8,19c1,.8,2.1,1.6,3.2,2.4l13.8-19Z"/>
  <path class="st0" d="M78.5,126.9v-23.5c-.7,0-1.3,0-2,0s-1.3,0-2,0v23.5c.7,0,1.3,0,2,0s1.3,0,2,0Z"/>
  <path class="st0" d="M93.6,97.2c-1,.9-2.1,1.7-3.2,2.4l13.8,19c1.1-.7,2.2-1.5,3.2-2.4l-13.8-19Z"/>
  <path class="st0" d="M104.2,35.4l-13.8,19c1.1.7,2.2,1.5,3.2,2.4l13.8-19c-1-.8-2.1-1.6-3.2-2.4Z"/>
  <path class="st0" d="M102.2,83.3c-.3,1.3-.7,2.6-1.2,3.8l22.4,7.3c.5-1.2.9-2.5,1.2-3.8l-22.4-7.3Z"/>
  <path class="st0" d="M59.4,56.8c1-.9,2.1-1.7,3.2-2.4l-13.8-19c-1.1.7-2.2,1.5-3.2,2.4l13.8,19Z"/>
  <path class="st0" d="M74.5,27.1v23.5c.7,0,1.3,0,2,0s1.3,0,2,0v-23.5c-.7,0-1.3,0-2,0s-1.3,0-2,0Z"/>
  <path class="st0" d="M101,66.9c.5,1.2.9,2.5,1.2,3.8l22.4-7.3c-.4-1.3-.8-2.6-1.2-3.8l-22.4,7.3Z"/>
</svg>