<?xml version="1.0" encoding="UTF-8"?>
<svg id="Layer_2" xmlns="http://www.w3.org/2000/svg" version="1.1" viewBox="0 0 153 153.5">
  <!-- Generator: Adobe Illustrator 29.4.0, SVG Export Plug-In . SVG Version: 2.1.0 Build 152)  -->
  <defs>
    <style>
      .st0 {
        fill: #fff;
      }
    </style>
  </defs>
  <path class="st0" d="M126.5,62.6l23.3-7.6-1.2-3.8-23.3,7.6c.5,1.2.9,2.5,1.2,3.8Z"/>
  <path class="st0" d="M44.4,117.6l-14.4,19.9,3.2,2.4,14.4-19.9c-1.1-.7-2.2-1.5-3.2-2.4Z"/>
  <path class="st0" d="M76.5,128.7c-.7,0-1.3,0-2,0v24.6h4v-24.6c-.7,0-1.3,0-2,0Z"/>
  <path class="st0" d="M26.5,90.9l-23.3,7.6,1.2,3.8,23.3-7.6c-.5-1.2-.9-2.5-1.2-3.8Z"/>
  <path class="st0" d="M126.5,90.9c-.4,1.3-.8,2.6-1.2,3.8l23.3,7.6,1.2-3.8-23.3-7.6Z"/>
  <path class="st0" d="M105.4,119.9l14.4,19.9,3.2-2.4-14.4-19.9c-1,.8-2.1,1.6-3.2,2.4Z"/>
  <path class="st0" d="M27.7,58.8l-23.3-7.6-1.2,3.8,23.3,7.6c.4-1.3.8-2.6,1.2-3.8Z"/>
  <path class="st0" d="M108.6,35.9l14.4-19.9-3.2-2.4-14.4,19.9c1.1.7,2.2,1.5,3.2,2.4Z"/>
  <path class="st0" d="M76.5,24.7c.7,0,1.3,0,2,0V.2h-4v24.6c.7,0,1.3,0,2,0Z"/>
  <path class="st0" d="M47.6,33.5l-14.4-19.9-3.2,2.4,14.4,19.9c1-.8,2.1-1.6,3.2-2.4Z"/>
</svg>